# xmcd CD database file
#
# Track frame offsets:
#	150
#	10538
#	27527
#	40830
#	57219
#	75934
#	94849
#	109103
#	126462
#	145956
#	157492
#	172347
#	189332
#	204393
#	223846
#	240692
#	263885
#
# Disc length: 3754 seconds
#
# Revision: 0
# Processed by: cddbd v1.5.1PL0 Copyright (c) Steve Scherf et al.
# Submitted via: CDex 1.50
#
DISCID=f60ea811
DTITLE=Feist - Let it Die
DYEAR=2004
DGENRE=Jazz
TTITLE0=Gatekeeper
TTITLE1=Mushaboom
TTITLE2=Let it die
TTITLE3=One Evening
TTITLE4=Leisure Suite
TTITLE5=Lonely Lonely
TTITLE6=When I Was A Young Girl
TTITLE7=Secret Heart
TTITLE8=Inside And Out
TTITLE9=Tout Doucement
TTITLE10=Now at Last
TTITLE11=Mushaboom 2
TTITLE12=L amour ne dure pas toujours
TTITLE13=Monarch
TTITLE14=Intuition
TTITLE15=The Eastern Shore
TTITLE16=The Simple Story (with Jane Birkin)
EXTD=YEAR: 2004
EXTT0=
EXTT1=
EXTT2=
EXTT3=
EXTT4=
EXTT5=
EXTT6=
EXTT7=
EXTT8=
EXTT9=
EXTT10=
EXTT11=
EXTT12=
EXTT13=
EXTT14=
EXTT15=
EXTT16=
PLAYORDER=
